<svg id="Emojies" xmlns="http://www.w3.org/2000/svg" viewBox="0 0 503.57 503.57">
  <defs>
    <style>
      .cls-1 {
        fill: #eee;
      }

      .cls-2 {
        fill: #333;
      }
    </style>
  </defs>
  <rect class="cls-1" width="503.57" height="503.57" rx="55"/>
  <path class="cls-2" d="M338.87,369.86c-6.07,39.37-23.74,58.15-29.56,63.83l-.58.56a76.14,76.14,0,0,1-105.37,0l-.58-.56c-5.82-5.68-23.5-24.46-29.57-63.83C163.06,304,197.86,261.19,225.88,179.12A609.05,609.05,0,0,0,253.53,58.8a2.53,2.53,0,0,1,5,0A609.16,609.16,0,0,0,286.2,179.12C314.23,261.19,349,304,338.87,369.86Z" transform="translate(-4.22 -4.22)"/>
</svg>
