<svg xmlns="http://www.w3.org/2000/svg" viewBox="0 0 503.57 503.57">
  <defs>
    <style>
      .cls-1 {
        fill: #8ab8fa;
      }

      .cls-2 {
        fill: #8b858c;
      }

      .cls-3 {
        fill: #eee;
      }
    </style>
  </defs>
  <g id="Слой_2" data-name="Слой 2">
    <g id="Тёрн_колючки" data-name="Тёрн колючки">
      <rect class="cls-1" width="503.57" height="503.57" rx="55"/>
      <g>
        <path class="cls-2" d="M251.78,441.13a187.12,187.12,0,0,1-132.72-54.89c-73.18-73.18-73.18-192.26,0-265.44s192.26-73.18,265.44,0a187.68,187.68,0,0,1,0,265.44h0A187.11,187.11,0,0,1,251.78,441.13Zm0-336.92a148.94,148.94,0,0,0-105.63,43.68c-58.24,58.25-58.24,153,0,211.26s153,58.24,211.26,0h0A149.31,149.31,0,0,0,251.78,104.21Z"/>
        <g>
          <g>
            <path class="cls-3" d="M147.55,143c.74,1-3,3.67-3,8.68,0,1.5.63,3.07,1.72,6.27a44.32,44.32,0,0,0,3.14,7.45,25.53,25.53,0,0,0,7.67,8.19c4.21,3.12,12,11.38,27.39,33.27a143.41,143.41,0,0,0-30.13-22.31c-3.43-1.87-12.68-6.76-22.54-6.25-5,.26-7.89,1.74-8.84,2.34-4.86,3.06-6,7.07-6.89,6.77-1.89-.66-1.39-22.85,13.22-36.12C136.9,144.41,146.49,141.52,147.55,143Z"/>
            <path class="cls-3" d="M99.29,237.71c1.24.16.5,4.33,3.93,9.24.84,1.2,3,4,8.51,6.84,8.29,4.27,16.42,4.58,20.35,4.7,9.32.27,22,.27,37.57-.79a118.12,118.12,0,0,1-38.74,11c-8.52.83-16.12.54-21,6.08-6.47,7.37-2.36,18.57-5.25,19.36s-10.88-10.63-12.86-24.16C89.34,252.92,96.83,237.39,99.29,237.71Z"/>
            <path class="cls-3" d="M132.48,345.76c.26-.14,1,1.19,3.6,3.61a42,42,0,0,0,6,4.55c5.28,3.12,13,.87,15.83.05,10.18-3,27.24-17,45-39.13-3.53,6.7-14.87,28.53-22.7,48.52-1.88,4.8-4.78,12.6-1.32,18.94,2.56,4.69,7.11,5.87,6.77,6.88-.59,1.7-20.29,1.57-35.37-10.94S131.56,346.26,132.48,345.76Z"/>
            <path class="cls-3" d="M240.08,406.4c-.09-1,1.3-1.26,5.13-4.32,2.76-2.21,9.51-7.59,11.7-14.07,1.7-5,.27-9.6-.39-12.13-2-7.74-3-20,1.56-39.91,1.76,11.53,5.77,28.94,15.65,44.6,7.74,12.26,13.62,14.83,17.57,15.55,5.24,1,9.27-.91,9.65.09.68,1.76-11.1,10-25.65,13.32C258.35,413.39,240.41,409.92,240.08,406.4Z"/>
          </g>
          <g>
            <path class="cls-3" d="M350.23,368.44c-.54-.85,3.79-3.08,6.07-9.58a18.52,18.52,0,0,0,.95-9.75c-.58-2.92-1.58-3.56-3.14-7.45a40.61,40.61,0,0,1-2.49-9.56c-.86-4.7-8.13-16-33.28-43.48,30.73,17.66,40.76,26.89,44,32.08.86,1.36,3.93,6.71,9.36,8.06a16.31,16.31,0,0,0,7.6-.16c3.48-1,4.42-2.82,5.35-2.42,2.28,1,1.62,13.79-4.81,24.08C370.32,365.5,351.3,370.12,350.23,368.44Z"/>
            <path class="cls-3" d="M402.47,260.7c-3.1-.26-2.1-8.3-8.52-14.16-5.82-5.31-13.44-4.93-19.78-5.27C365,240.78,352,238.41,336,229.92a256.53,256.53,0,0,0,40.44.65c8-.52,15.48-1.45,19.82-6.91,3.15-4,2.75-7.88,4.83-8.22,3.6-.58,10.12,10.3,10.7,21.66C412.35,249.1,406.31,261,402.47,260.7Z"/>
            <path class="cls-3" d="M363.34,150.68c-1.84,1.95-6.66-2.77-16-2.63-7.35.12-12.73,3.19-17,5.64-13.87,7.92-20.77,20.79-23.56,26.93,4-21.4,9.65-31.45,14.48-36.59,1.47-1.57,5.14-5.1,5.74-10.45.77-6.76-4-10.49-2.42-12.83,2.22-3.23,14.35-.58,23.68,6.06C359.39,134.72,366,147.9,363.34,150.68Z"/>
            <path class="cls-3" d="M255,100.66c.21,1.92-3.07,2.76-10.15,10.69a19.31,19.31,0,0,0-3.81,5.49,18.11,18.11,0,0,0-1.17,9c.53,6.25,3.78,20.54,9.46,38.93-10.72-13.84-16.1-24.92-19.05-32.72-1.83-4.85-3.83-11.34-10-16.54s-11.32-4.79-11.66-7.67c-.55-4.58,11.87-11,23.93-12.33C243.29,94.33,254.57,97.2,255,100.66Z"/>
          </g>
        </g>
        <g>
          <g>
            <path class="cls-3" d="M128.74,119.62c-2.34-2.44,1.43-7.05,2.75-16.09,1.21-8.2-.37-14.72-4.5-27.39C120.93,57.5,114.3,40.76,108.8,27.81,128,52,135.51,65.15,138.66,72.83A53.05,53.05,0,0,0,143.57,83c6.43,10,13.06,11.68,13.36,17.59.2,4-2.65,7.05-5.62,10.23C144.19,118.46,132.06,123.1,128.74,119.62Z"/>
            <path class="cls-3" d="M69.73,247.66c-3.59-.1-3.74-6.22-10.52-10.88-5-3.41-9.39-3.11-15-4-6.36-1-15.17-3.52-25.5-10.49a86.24,86.24,0,0,0,34.11-4.9c8.73-3.21,15.27-7.43,20.7-4.35s6.12,11.29,6.29,13.52C80.56,236.8,74.6,247.8,69.73,247.66Z"/>
            <path class="cls-3" d="M114.86,373.66c-4.26,7.06-17.63-.6-35.59,7.35-4.64,2.05-4,2.66-16.09,10.34C53.52,397.47,45.31,402,39.73,405a221.78,221.78,0,0,1,31.36-38.33c21.08-20.48,28.71-19.41,31.77-18.28,4.14,1.51,6.86,5.65,8.23,7.73C111.71,357,118.51,367.62,114.86,373.66Z"/>
          </g>
          <g>
            <path class="cls-3" d="M239.49,436.73c0,4.41-8.6,4.76-16.63,14.87-3.12,3.94-3.69,6.24-5.87,10.17-3.4,6.16-9.65,14.32-22.1,22.11,2.63-4.62,9-16.43,11.34-29.54,1.05-5.81,1.64-9.09,1.08-13.7-.77-6.22-2.86-8.4-1.47-11,2.68-4.89,13.84-3.35,15.46-3.13C228.76,427.58,239.53,431.77,239.49,436.73Z"/>
            <path class="cls-3" d="M379.13,387.23c3.11,3-4.44,11.18-4.44,27.13,0,4.86.7,8.27,1.83,13.56a149.53,149.53,0,0,0,13.82,37.83c-13.37-10.95-19.81-21.2-23.21-28.7C365,432.46,364,428.7,360,424c-8.18-9.54-17-9.22-17.65-14.37s7.42-9.88,16.18-15.13C365.14,390.56,375.88,384.12,379.13,387.23Z"/>
            <path class="cls-3" d="M435.21,267.49c4.07.38,4.4,6.45,12,12.26,3.14,2.4,5.53,3.24,10.44,5.22,5.75,2.31,14,5.78,24.26,10.69a136.41,136.41,0,0,0-27-2.24c-10.73.21-14.59,1.62-17.59,3.81-4.72,3.43-5.19,7.2-7.57,7-4.27-.29-9.21-13-5.93-23.8C425.62,274.44,430.57,267.05,435.21,267.49Z"/>
          </g>
          <g>
            <path class="cls-3" d="M392.69,136.27c1.89-4.3,11.3-3.92,14.87-3.91,12.43,0,30.77-4.52,56.35-24.79-11.76,17.33-22.29,25.24-30,29.22-3.17,1.64-7.73,3.58-11.62,8.52-6.8,8.65-4.79,17.92-8.73,18.87-2.51.61-5.62-3.32-11.74-11.21C394.82,143.93,391.34,139.35,392.69,136.27Z"/>
            <path class="cls-3" d="M250.74,67.73c.56-2,6.66.28,14.58-2.84,6.36-2.51,10.2-7,20.35-22.79,4.64-7.2,10-15.86,15.85-25.83-1.53,10.58-3.27,19.13-4.6,25-3.09,13.79-5.08,18.39-2.54,23.78,4.07,8.64,15,9,14.57,12.22-.45,3.79-15.54,6.66-30.22,4.2C263.45,78.94,249.9,70.81,250.74,67.73Z"/>
          </g>
        </g>
      </g>
    </g>
  </g>
</svg>
