<svg xmlns="http://www.w3.org/2000/svg" viewBox="0 0 503.57 503.57">
  <defs>
    <style>
      .cls-1 {
        fill: #66c6b1;
      }

      .cls-2 {
        fill: #fff;
      }
    </style>
  </defs>
  <g id="Слой_2" data-name="Слой 2">
    <g id="Бабочка">
      <rect class="cls-1" width="503.57" height="503.57" rx="55"/>
      <g>
        <path class="cls-2" d="M255.55,206.93c-2.84-15.52-12.86-70.19-60.23-104C162.79,79.68,106.14,61.63,67.7,87.79c-12.65,8.6-20.16,19.84-24.51,28,21.27-.1,28.84,7.21,31.68,11,17.29,22.79-14.21,79.86-26.43,88.61-1,.72-5.89,4-5.25,6.82.42,1.82,3,2.36,5.57,3.74,6,3.17,8.31,8.56,10.08,11.12,8.83,12.78,41.43,6.72,44.32,15.51,1.88,5.71-11.11,10.57-17.72,24.07C78.27,291.3,82.6,308,87,319.36a58.15,58.15,0,0,1,29.17,65.12,27.4,27.4,0,0,0,8.71,9.75c15.75,10.49,38.62-6.51,45.52,1.72,3.14,3.74,1.18,10.33,0,14.19-4,13.37-16.48,18.2-15,21.27s15-.44,17.86-1.17A82.89,82.89,0,0,0,193.37,422a32.37,32.37,0,0,0,12.77-11.6c5.24-8.65,3.24-17.29,4-22.81,4-27.61,26.88-31.94,39.89-61,4.53-10.12,5.37-22.26,7-46.54C258.47,260.3,260.34,233.2,255.55,206.93Z"/>
        <path class="cls-2" d="M248,206.93c2.83-15.52,12.86-70.19,60.22-104,32.53-23.23,89.18-41.28,127.62-15.12,12.65,8.6,20.16,19.84,24.51,28-21.27-.1-28.84,7.21-31.68,11-17.28,22.79,14.21,79.86,26.43,88.61,1,.72,5.9,4,5.25,6.82-.42,1.82-2.95,2.36-5.57,3.74-6,3.17-8.3,8.56-10.07,11.12-8.84,12.78-41.43,6.72-44.32,15.51-1.88,5.71,11.11,10.57,17.71,24.07,7.18,14.67,2.85,31.4-1.57,42.73a58.14,58.14,0,0,0-29.18,65.12,27.45,27.45,0,0,1-8.7,9.75c-15.75,10.49-38.63-6.51-45.53,1.72-3.13,3.74-1.17,10.33,0,14.19,4,13.37,16.47,18.2,15,21.27s-15-.44-17.85-1.17A82.89,82.89,0,0,1,310.2,422a32.31,32.31,0,0,1-12.77-11.6c-5.25-8.65-3.25-17.29-4.05-22.81-4-27.61-26.88-31.94-39.89-61-4.53-10.12-5.36-22.26-7-46.54C245.09,260.3,243.23,233.2,248,206.93Z"/>
      </g>
    </g>
  </g>
</svg>
