<svg xmlns="http://www.w3.org/2000/svg" viewBox="0 0 503.57 503.57">
  <defs>
    <style>
      .cls-1 {
        fill: #9ad94f;
      }

      .cls-2 {
        fill: #fff;
      }
    </style>
  </defs>
  <g id="Слой_2" data-name="Слой 2">
    <g id="Хирон">
      <rect class="cls-1" width="503.57" height="503.57" rx="55"/>
      <path class="cls-2" d="M251.76,340.61c25.48,0,49.89,6.42,67,17.61,12.19,8,19.18,17.34,19.18,25.69s-7,17.72-19.18,25.7c-17.08,11.18-41.49,17.6-67,17.6s-49.88-6.42-67-17.6c-12.19-8-19.18-17.35-19.18-25.7s7-17.71,19.18-25.69c17.08-11.19,41.49-17.61,67-17.61m0-38c-68.56,0-124.14,36.4-124.14,81.3s55.58,81.3,124.14,81.3,124.15-36.4,124.15-81.3-55.58-81.3-124.15-81.3Z"/>
      <rect class="cls-2" x="79.29" y="175.26" width="286.93" height="37.13" rx="12" transform="translate(416.59 -28.93) rotate(90)"/>
      <rect class="cls-2" x="201.74" y="112.79" width="148.3" height="37.13" rx="12" transform="translate(563.86 29.16) rotate(135)"/>
      <rect class="cls-2" x="201.74" y="199.92" width="148.3" height="37.13" rx="12" transform="translate(316.48 568.07) rotate(-135)"/>
    </g>
  </g>
</svg>
