<svg id="Слой_1" data-name="Слой 1" xmlns="http://www.w3.org/2000/svg" viewBox="0 0 5632 2048">
  <defs>
    <style>
      .cls-1 {
        fill: #e1aa4b;
      }

      .cls-2, .cls-3 {
        fill: #eee;
      }

      .cls-19, .cls-3 {
        font-size: 72px;
        font-family: Alegreya-Medium, Alegreya;
        font-weight: 500;
      }

      .cls-4 {
        fill: #f0aa14;
      }

      .cls-5 {
        fill: #e2ad0c;
      }

      .cls-6 {
        fill: #dc4032;
      }

      .cls-7 {
        fill: #fd3d2e;
      }

      .cls-8 {
        fill: #46646c;
      }

      .cls-9 {
        fill: #22735e;
      }

      .cls-10 {
        fill: #01877a;
      }

      .cls-11 {
        fill: #427c5c;
      }

      .cls-12 {
        fill: #007a86;
      }

      .cls-13 {
        fill: #39993f;
      }

      .cls-14 {
        fill: #39998e;
      }

      .cls-15 {
        fill: #2fcbca;
      }

      .cls-16 {
        letter-spacing: -0.01em;
      }

      .cls-17 {
        letter-spacing: 0em;
      }

      .cls-18 {
        fill: #b5d2b3;
      }

      .cls-19, .cls-24 {
        fill: #333;
      }

      .cls-20 {
        fill: #baf1b3;
      }

      .cls-21 {
        fill: #3ff7c3;
      }

      .cls-22 {
        fill: #48f4f6;
      }

      .cls-23 {
        fill: #c50000;
      }

      .cls-25 {
        fill: #222;
      }

      .cls-26 {
        fill: #bfbcb8;
      }

      .cls-27 {
        fill: #fff;
      }

      .cls-28 {
        fill: #f2e5de;
      }

      .cls-29 {
        fill: #f8d826;
      }

      .cls-30 {
        fill: #fedb1d;
      }

      .cls-31 {
        fill: #fbca4d;
      }

      .cls-32 {
        letter-spacing: 0em;
      }

      .cls-33 {
        fill: #e1c16e;
      }

      .cls-34 {
        fill: #e2b041;
      }

      .cls-35 {
        fill: #e08a1e;
      }

      .cls-36 {
        fill: #c7800c;
      }

      .cls-37 {
        fill: #ffca43;
      }

      .cls-38 {
        fill: #fee036;
      }
    </style>
  </defs>
  <g>
    <g>
      <rect class="cls-1" x="2053" y="5" width="502" height="502" rx="27"/>
      <path class="cls-2" d="M2528,10a22,22,0,0,1,22,22V480a22,22,0,0,1-22,22H2080a22,22,0,0,1-22-22V32a22,22,0,0,1,22-22h448m0-10H2080a32,32,0,0,0-32,32V480a32,32,0,0,0,32,32h448a32,32,0,0,0,32-32V32a32,32,0,0,0-32-32Z"/>
    </g>
    <text class="cls-3" transform="translate(2188.08 282.71)">E1AA4B</text>
  </g>
  <g>
    <g>
      <rect class="cls-4" x="1541" y="5" width="502" height="502" rx="27"/>
      <path class="cls-2" d="M2016,10a22,22,0,0,1,22,22V480a22,22,0,0,1-22,22H1568a22,22,0,0,1-22-22V32a22,22,0,0,1,22-22h448m0-10H1568a32,32,0,0,0-32,32V480a32,32,0,0,0,32,32h448a32,32,0,0,0,32-32V32a32,32,0,0,0-32-32Z"/>
    </g>
    <text class="cls-3" transform="translate(1681.98 282.71)">F0AA14</text>
  </g>
  <g>
    <g>
      <rect class="cls-5" x="1029" y="5" width="502" height="502" rx="27"/>
      <path class="cls-2" d="M1504,10a22,22,0,0,1,22,22V480a22,22,0,0,1-22,22H1056a22,22,0,0,1-22-22V32a22,22,0,0,1,22-22h448m0-10H1056a32,32,0,0,0-32,32V480a32,32,0,0,0,32,32h448a32,32,0,0,0,32-32V32a32,32,0,0,0-32-32Z"/>
    </g>
    <text class="cls-3" transform="translate(1153.5 282.71)">E2AD0C</text>
  </g>
  <g>
    <g>
      <rect class="cls-6" x="517" y="517" width="502" height="502" rx="27"/>
      <path class="cls-2" d="M992,522a22,22,0,0,1,22,22V992a22,22,0,0,1-22,22H544a22,22,0,0,1-22-22V544a22,22,0,0,1,22-22H992m0-10H544a32,32,0,0,0-32,32V992a32,32,0,0,0,32,32H992a32,32,0,0,0,32-32V544a32,32,0,0,0-32-32Z"/>
    </g>
    <text class="cls-3" transform="translate(652.73 794.71)">DC4032</text>
  </g>
  <g>
    <g>
      <rect class="cls-7" x="1029" y="517" width="502" height="502" rx="27"/>
      <path class="cls-2" d="M1504,522a22,22,0,0,1,22,22V992a22,22,0,0,1-22,22H1056a22,22,0,0,1-22-22V544a22,22,0,0,1,22-22h448m0-10H1056a32,32,0,0,0-32,32V992a32,32,0,0,0,32,32h448a32,32,0,0,0,32-32V544a32,32,0,0,0-32-32Z"/>
    </g>
    <text class="cls-3" transform="translate(1157.1 794.71)">FD3D2E</text>
  </g>
  <g>
    <g>
      <rect class="cls-8" x="5" y="1029" width="502" height="502" rx="27"/>
      <path class="cls-2" d="M480,1034a22,22,0,0,1,22,22v448a22,22,0,0,1-22,22H32a22,22,0,0,1-22-22V1056a22,22,0,0,1,22-22H480m0-10H32a32,32,0,0,0-32,32v448a32,32,0,0,0,32,32H480a32,32,0,0,0,32-32V1056a32,32,0,0,0-32-32Z"/>
    </g>
    <text class="cls-3" transform="translate(150.34 1306.71)">46646C</text>
  </g>
  <g>
    <g>
      <rect class="cls-9" x="517" y="1029" width="502" height="502" rx="27"/>
      <path class="cls-2" d="M992,1034a22,22,0,0,1,22,22v448a22,22,0,0,1-22,22H544a22,22,0,0,1-22-22V1056a22,22,0,0,1,22-22H992m0-10H544a32,32,0,0,0-32,32v448a32,32,0,0,0,32,32H992a32,32,0,0,0,32-32V1056a32,32,0,0,0-32-32Z"/>
    </g>
    <text class="cls-3" transform="translate(666.27 1306.71)">22735E</text>
  </g>
  <g>
    <g>
      <rect class="cls-10" x="2565" y="1029" width="502" height="502" rx="27"/>
      <path class="cls-2" d="M3040,1034a22,22,0,0,1,22,22v448a22,22,0,0,1-22,22H2592a22,22,0,0,1-22-22V1056a22,22,0,0,1,22-22h448m0-10H2592a32,32,0,0,0-32,32v448a32,32,0,0,0,32,32h448a32,32,0,0,0,32-32V1056a32,32,0,0,0-32-32Z"/>
    </g>
    <text class="cls-3" transform="translate(2715.2 1306.71)">01877A</text>
  </g>
  <g>
    <g>
      <rect class="cls-11" x="1029" y="1029" width="502" height="502" rx="27"/>
      <path class="cls-2" d="M1504,1034a22,22,0,0,1,22,22v448a22,22,0,0,1-22,22H1056a22,22,0,0,1-22-22V1056a22,22,0,0,1,22-22h448m0-10H1056a32,32,0,0,0-32,32v448a32,32,0,0,0,32,32h448a32,32,0,0,0,32-32V1056a32,32,0,0,0-32-32Z"/>
    </g>
    <text class="cls-3" transform="translate(1170.78 1306.71)">427C5C</text>
  </g>
  <g>
    <g>
      <rect class="cls-12" x="3077" y="1029" width="502" height="502" rx="27"/>
      <path class="cls-2" d="M3552,1034a22,22,0,0,1,22,22v448a22,22,0,0,1-22,22H3104a22,22,0,0,1-22-22V1056a22,22,0,0,1,22-22h448m0-10H3104a32,32,0,0,0-32,32v448a32,32,0,0,0,32,32h448a32,32,0,0,0,32-32V1056a32,32,0,0,0-32-32Z"/>
    </g>
    <text class="cls-3" transform="translate(3219.61 1306.71)">007A86</text>
  </g>
  <g>
    <g>
      <rect class="cls-13" x="1541" y="1029" width="502" height="502" rx="27"/>
      <path class="cls-2" d="M2016,1034a22,22,0,0,1,22,22v448a22,22,0,0,1-22,22H1568a22,22,0,0,1-22-22V1056a22,22,0,0,1,22-22h448m0-10H1568a32,32,0,0,0-32,32v448a32,32,0,0,0,32,32h448a32,32,0,0,0,32-32V1056a32,32,0,0,0-32-32Z"/>
    </g>
    <text class="cls-3" transform="translate(1693.22 1306.71)">39993F</text>
  </g>
  <g>
    <g>
      <rect class="cls-14" x="2053" y="1029" width="502" height="502" rx="27"/>
      <path class="cls-2" d="M2528,1034a22,22,0,0,1,22,22v448a22,22,0,0,1-22,22H2080a22,22,0,0,1-22-22V1056a22,22,0,0,1,22-22h448m0-10H2080a32,32,0,0,0-32,32v448a32,32,0,0,0,32,32h448a32,32,0,0,0,32-32V1056a32,32,0,0,0-32-32Z"/>
    </g>
    <text class="cls-3" transform="translate(2200.47 1306.71)">39998E</text>
  </g>
  <g>
    <g>
      <rect class="cls-15" x="3589" y="1029" width="502" height="502" rx="27"/>
      <path class="cls-2" d="M4064,1034a22,22,0,0,1,22,22v448a22,22,0,0,1-22,22H3616a22,22,0,0,1-22-22V1056a22,22,0,0,1,22-22h448m0-10H3616a32,32,0,0,0-32,32v448a32,32,0,0,0,32,32h448a32,32,0,0,0,32-32V1056a32,32,0,0,0-32-32Z"/>
    </g>
    <text class="cls-3" transform="translate(3716.02 1306.71)">2<tspan class="cls-16" x="34.49" y="0">F</tspan><tspan x="71.28" y="0">CB</tspan><tspan class="cls-17" x="159.98" y="0">C</tspan><tspan x="204.55" y="0">A</tspan></text>
  </g>
  <g>
    <g>
      <rect class="cls-18" x="4101" y="1029" width="502" height="502" rx="27"/>
      <path class="cls-2" d="M4576,1034a22,22,0,0,1,22,22v448a22,22,0,0,1-22,22H4128a22,22,0,0,1-22-22V1056a22,22,0,0,1,22-22h448m0-10H4128a32,32,0,0,0-32,32v448a32,32,0,0,0,32,32h448a32,32,0,0,0,32-32V1056a32,32,0,0,0-32-32Z"/>
    </g>
    <text class="cls-19" transform="translate(4234.93 1306.71)">B5D2B3</text>
  </g>
  <g>
    <g>
      <rect class="cls-20" x="4613" y="1029" width="502" height="502" rx="27"/>
      <path class="cls-2" d="M5088,1034a22,22,0,0,1,22,22v448a22,22,0,0,1-22,22H4640a22,22,0,0,1-22-22V1056a22,22,0,0,1,22-22h448m0-10H4640a32,32,0,0,0-32,32v448a32,32,0,0,0,32,32h448a32,32,0,0,0,32-32V1056a32,32,0,0,0-32-32Z"/>
    </g>
    <text class="cls-19" transform="translate(4751.75 1306.71)">BAF1B3</text>
  </g>
  <g>
    <g>
      <rect class="cls-21" x="5125" y="1029" width="502" height="502" rx="27"/>
      <path class="cls-2" d="M5600,1034a22,22,0,0,1,22,22v448a22,22,0,0,1-22,22H5152a22,22,0,0,1-22-22V1056a22,22,0,0,1,22-22h448m0-10H5152a32,32,0,0,0-32,32v448a32,32,0,0,0,32,32h448a32,32,0,0,0,32-32V1056a32,32,0,0,0-32-32Z"/>
    </g>
    <text class="cls-19" transform="translate(5270.45 1306.71)">3FF7C3</text>
  </g>
  <g>
    <g>
      <rect class="cls-22" x="5125" y="1541" width="502" height="502" rx="27"/>
      <path class="cls-2" d="M5600,1546a22,22,0,0,1,22,22v448a22,22,0,0,1-22,22H5152a22,22,0,0,1-22-22V1568a22,22,0,0,1,22-22h448m0-10H5152a32,32,0,0,0-32,32v448a32,32,0,0,0,32,32h448a32,32,0,0,0,32-32V1568a32,32,0,0,0-32-32Z"/>
    </g>
    <text class="cls-19" transform="translate(5271.21 1818.71)">48F4F6</text>
  </g>
  <g>
    <g>
      <rect class="cls-23" x="5" y="517" width="502" height="502" rx="27"/>
      <path class="cls-2" d="M480,522a22,22,0,0,1,22,22V992a22,22,0,0,1-22,22H32a22,22,0,0,1-22-22V544a22,22,0,0,1,22-22H480m0-10H32A32,32,0,0,0,0,544V992a32,32,0,0,0,32,32H480a32,32,0,0,0,32-32V544a32,32,0,0,0-32-32Z"/>
    </g>
    <text class="cls-3" transform="translate(143.47 794.71)">C50000</text>
  </g>
  <g>
    <g>
      <rect class="cls-24" x="517" y="1541" width="502" height="502" rx="27"/>
      <path class="cls-2" d="M992,1546a22,22,0,0,1,22,22v448a22,22,0,0,1-22,22H544a22,22,0,0,1-22-22V1568a22,22,0,0,1,22-22H992m0-10H544a32,32,0,0,0-32,32v448a32,32,0,0,0,32,32H992a32,32,0,0,0,32-32V1568a32,32,0,0,0-32-32Z"/>
    </g>
    <text class="cls-3" transform="translate(676.63 1818.71)">333333</text>
  </g>
  <g>
    <g>
      <rect class="cls-25" x="5" y="1541" width="502" height="502" rx="27"/>
      <path class="cls-2" d="M480,1546a22,22,0,0,1,22,22v448a22,22,0,0,1-22,22H32a22,22,0,0,1-22-22V1568a22,22,0,0,1,22-22H480m0-10H32a32,32,0,0,0-32,32v448a32,32,0,0,0,32,32H480a32,32,0,0,0,32-32V1568a32,32,0,0,0-32-32Z"/>
    </g>
    <text class="cls-3" transform="translate(152.54 1818.71)">222222</text>
  </g>
  <g>
    <g>
      <rect class="cls-26" x="1029" y="1541" width="502" height="502" rx="27"/>
      <path class="cls-2" d="M1504,1546a22,22,0,0,1,22,22v448a22,22,0,0,1-22,22H1056a22,22,0,0,1-22-22V1568a22,22,0,0,1,22-22h448m0-10H1056a32,32,0,0,0-32,32v448a32,32,0,0,0,32,32h448a32,32,0,0,0,32-32V1568a32,32,0,0,0-32-32Z"/>
    </g>
    <text class="cls-19" transform="translate(1155.51 1818.71)">BFBCB8</text>
  </g>
  <g>
    <g>
      <rect class="cls-2" x="1541" y="1541" width="502" height="502" rx="27"/>
      <path class="cls-27" d="M2016,1546a22,22,0,0,1,22,22v448a22,22,0,0,1-22,22H1568a22,22,0,0,1-22-22V1568a22,22,0,0,1,22-22h448m0-10H1568a32,32,0,0,0-32,32v448a32,32,0,0,0,32,32h448a32,32,0,0,0,32-32V1568a32,32,0,0,0-32-32Z"/>
    </g>
    <text class="cls-19" transform="translate(1663.92 1818.71)">EEEEEE</text>
  </g>
  <g>
    <g>
      <rect class="cls-28" x="2053" y="1541" width="502" height="502" rx="27"/>
      <path class="cls-2" d="M2528,1546a22,22,0,0,1,22,22v448a22,22,0,0,1-22,22H2080a22,22,0,0,1-22-22V1568a22,22,0,0,1,22-22h448m0-10H2080a32,32,0,0,0-32,32v448a32,32,0,0,0,32,32h448a32,32,0,0,0,32-32V1568a32,32,0,0,0-32-32Z"/>
    </g>
    <text class="cls-19" transform="translate(2184.7 1818.71)">F2E5DE</text>
  </g>
  <g>
    <g>
      <rect class="cls-29" x="5125" y="5" width="502" height="502" rx="27"/>
      <path class="cls-2" d="M5600,10a22,22,0,0,1,22,22V480a22,22,0,0,1-22,22H5152a22,22,0,0,1-22-22V32a22,22,0,0,1,22-22h448m0-10H5152a32,32,0,0,0-32,32V480a32,32,0,0,0,32,32h448a32,32,0,0,0,32-32V32a32,32,0,0,0-32-32Z"/>
    </g>
    <text class="cls-19" transform="translate(5263.36 282.71)">F8D826</text>
  </g>
  <g>
    <g>
      <rect class="cls-30" x="4613" y="5" width="502" height="502" rx="27"/>
      <path class="cls-2" d="M5088,10a22,22,0,0,1,22,22V480a22,22,0,0,1-22,22H4640a22,22,0,0,1-22-22V32a22,22,0,0,1,22-22h448m0-10H4640a32,32,0,0,0-32,32V480a32,32,0,0,0,32,32h448a32,32,0,0,0,32-32V32a32,32,0,0,0-32-32Z"/>
    </g>
    <text class="cls-19" transform="translate(4739.01 282.71)">FEDB1D</text>
  </g>
  <g>
    <g>
      <rect class="cls-31" x="4101" y="5" width="502" height="502" rx="27"/>
      <path class="cls-2" d="M4576,10a22,22,0,0,1,22,22V480a22,22,0,0,1-22,22H4128a22,22,0,0,1-22-22V32a22,22,0,0,1,22-22h448m0-10H4128a32,32,0,0,0-32,32V480a32,32,0,0,0,32,32h448a32,32,0,0,0,32-32V32a32,32,0,0,0-32-32Z"/>
    </g>
    <text class="cls-3" transform="translate(4225.5 282.71)">FB<tspan class="cls-32" x="81.5" y="0">C</tspan><tspan x="126.07" y="0">A4D</tspan></text>
  </g>
  <g>
    <g>
      <rect class="cls-33" x="3077" y="5" width="502" height="502" rx="27"/>
      <path class="cls-2" d="M3552,10a22,22,0,0,1,22,22V480a22,22,0,0,1-22,22H3104a22,22,0,0,1-22-22V32a22,22,0,0,1,22-22h448m0-10H3104a32,32,0,0,0-32,32V480a32,32,0,0,0,32,32h448a32,32,0,0,0,32-32V32a32,32,0,0,0-32-32Z"/>
    </g>
    <text class="cls-3" transform="translate(3221.12 282.71)">E1C16E</text>
  </g>
  <g>
    <g>
      <rect class="cls-34" x="2565" y="5" width="502" height="502" rx="27"/>
      <path class="cls-2" d="M3040,10a22,22,0,0,1,22,22V480a22,22,0,0,1-22,22H2592a22,22,0,0,1-22-22V32a22,22,0,0,1,22-22h448m0-10H2592a32,32,0,0,0-32,32V480a32,32,0,0,0,32,32h448a32,32,0,0,0,32-32V32a32,32,0,0,0-32-32Z"/>
    </g>
    <text class="cls-3" transform="translate(2707.57 282.71)">E2B041</text>
  </g>
  <g>
    <g>
      <rect class="cls-35" x="517" y="5" width="502" height="502" rx="27"/>
      <path class="cls-2" d="M992,10a22,22,0,0,1,22,22V480a22,22,0,0,1-22,22H544a22,22,0,0,1-22-22V32a22,22,0,0,1,22-22H992m0-10H544a32,32,0,0,0-32,32V480a32,32,0,0,0,32,32H992a32,32,0,0,0,32-32V32A32,32,0,0,0,992,0Z"/>
    </g>
    <text class="cls-3" transform="translate(654.96 282.71)">E08A1E</text>
  </g>
  <g>
    <g>
      <rect class="cls-36" x="5" y="5" width="502" height="502" rx="27"/>
      <path class="cls-2" d="M480,10a22,22,0,0,1,22,22V480a22,22,0,0,1-22,22H32a22,22,0,0,1-22-22V32A22,22,0,0,1,32,10H480m0-10H32A32,32,0,0,0,0,32V480a32,32,0,0,0,32,32H480a32,32,0,0,0,32-32V32A32,32,0,0,0,480,0Z"/>
    </g>
    <text class="cls-3" transform="translate(141.31 282.71)">C7800C</text>
  </g>
  <g>
    <g>
      <rect class="cls-37" x="3589" y="5" width="502" height="502" rx="27"/>
      <path class="cls-2" d="M4064,10a22,22,0,0,1,22,22V480a22,22,0,0,1-22,22H3616a22,22,0,0,1-22-22V32a22,22,0,0,1,22-22h448m0-10H3616a32,32,0,0,0-32,32V480a32,32,0,0,0,32,32h448a32,32,0,0,0,32-32V32a32,32,0,0,0-32-32Z"/>
    </g>
    <text class="cls-3" transform="translate(3727.03 282.71)">F<tspan class="cls-16" x="37.51" y="0">F</tspan><tspan class="cls-17" x="74.3" y="0">C</tspan><tspan x="118.87" y="0">A43</tspan></text>
  </g>
  <g>
    <g>
      <rect class="cls-38" x="5125" y="517" width="502" height="502" rx="27"/>
      <path class="cls-2" d="M5600,522a22,22,0,0,1,22,22V992a22,22,0,0,1-22,22H5152a22,22,0,0,1-22-22V544a22,22,0,0,1,22-22h448m0-10H5152a32,32,0,0,0-32,32V992a32,32,0,0,0,32,32h448a32,32,0,0,0,32-32V544a32,32,0,0,0-32-32Z"/>
    </g>
    <text class="cls-19" transform="translate(5263.93 794.71)">FEE036</text>
  </g>
</svg>
