<?xml version="1.0" encoding="utf-8"?>
<!-- Generator: Adobe Illustrator 25.0.0, SVG Export Plug-In . SVG Version: 6.00 Build 0)  -->
<svg version="1.1" id="Layer_2" xmlns="http://www.w3.org/2000/svg" xmlns:xlink="http://www.w3.org/1999/xlink" x="0px" y="0px"
	 viewBox="0 0 128 128" style="enable-background:new 0 0 128 128;" xml:space="preserve">
<style type="text/css">
	.st0{fill:#333338;}
	.st1{fill:#E6E6E6;}
</style>
<path class="st0" d="M63.4,4.1c-4.2,0.1-5.4,4.7-7,8.5S45.9,36.7,40.1,47S26.4,70.9,27.5,90.2c1.1,19.3,16.1,33.8,37.2,33.6
	c19-0.1,35.6-11.1,36.3-34.9c0.6-19.7-10.3-36.7-15.6-47.2c-3.2-6.2-13.6-27-14.7-29.5C68.7,7.6,67.9,4,63.4,4.1z"/>
<path class="st1" d="M47.4,64.4c-3,0.1-10,9.3-10,20.8s5.5,20.1,11.4,18.9c6.9-1.4,5.8-8.4,4.4-14.1c-1.2-4.8-3.1-10.6-3.5-15.8
	C49.4,70.9,50.5,64.3,47.4,64.4z"/>
</svg>
