<svg xmlns="http://www.w3.org/2000/svg" viewBox="0 0 503.57 503.57">
  <defs>
    <style>
      .cls-1 {
        fill: #e293d9;
      }

      .cls-2 {
        fill: #fff;
      }
    </style>
  </defs>
  <g id="Слой_2" data-name="Слой 2">
    <g id="Фемитрилекс">
      <rect class="cls-1" width="503.57" height="503.57" rx="55"/>
      <path class="cls-2" d="M251.77,126.84a79.07,79.07,0,1,1-79.06,79.07,79.16,79.16,0,0,1,79.06-79.07m0-38A117.07,117.07,0,1,0,368.84,205.91,117.06,117.06,0,0,0,251.77,88.84Z"/>
      <path class="cls-2" d="M251.77,36.67a167.53,167.53,0,0,0-163.38,204l32.43-55a132.25,132.25,0,0,1,261.84-.45l32.55,55.21A167.55,167.55,0,0,0,251.77,36.67Z"/>
      <g>
        <rect class="cls-2" x="232.36" y="289.82" width="38.87" height="128.64"/>
        <path class="cls-2" d="M251.79,413c-14.22-14.21-42.33-21-61.83-21.54,26.19,19.49,49,44.81,61.83,75.45,12.26-30.64,36.48-54.85,61.83-75.45C292.73,393.11,267.39,398.21,251.79,413Z"/>
      </g>
      <g>
        <path class="cls-2" d="M367.19,245.23l11.94,20.26a13.86,13.86,0,0,1-11.94,20.91h0a13.86,13.86,0,0,1-11.94-20.91l11.94-20.26m0-58.33L291.1,316H443.28L367.19,186.9Z"/>
        <path class="cls-2" d="M136.56,245.23l11.94,20.26a13.86,13.86,0,0,1-11.94,20.91h0a13.87,13.87,0,0,1-12-20.91l12-20.26m0-58.33L60.47,316H212.65L136.56,186.9Z"/>
      </g>
      <path class="cls-2" d="M335.41,351.37V358a9.59,9.59,0,0,1-2.81,6.78l-6,5.95a9.59,9.59,0,0,1-6.78,2.81H183.7a9.59,9.59,0,0,1-6.78-2.81L171,364.81a9.59,9.59,0,0,1-2.81-6.78v-6.66a9.57,9.57,0,0,1,2.81-6.78l5.95-5.95a9.59,9.59,0,0,1,6.78-2.81H319.87a9.59,9.59,0,0,1,6.78,2.81l6,5.95A9.57,9.57,0,0,1,335.41,351.37Z"/>
    </g>
  </g>
</svg>
