<svg xmlns="http://www.w3.org/2000/svg" viewBox="0 0 503.57 503.57">
  <defs>
    <style>
      .cls-1 {
        fill: #5ac7dd;
      }

      .cls-2 {
        fill: #eee;
      }

      .cls-3 {
        fill: none;
        stroke: #5ac7dd;
        stroke-linecap: round;
        stroke-linejoin: round;
        stroke-width: 20px;
      }
    </style>
  </defs>
  <g id="Слой_2" data-name="Слой 2">
    <g id="Maple_копия_" data-name="Maple (копия)">
      <g>
        <rect class="cls-1" width="503.57" height="503.57" rx="55"/>
        <g>
          <path class="cls-2" d="M235.61,59.2,93.09,141.49a32.32,32.32,0,0,0-16.17,28V334.07a32.34,32.34,0,0,0,16.17,28l142.52,82.28a32.34,32.34,0,0,0,32.35,0l142.51-82.28a32.35,32.35,0,0,0,16.18-28V169.5a32.33,32.33,0,0,0-16.18-28L268,59.2A32.39,32.39,0,0,0,235.61,59.2Z"/>
          <g>
            <path class="cls-1" d="M384,187,271.79,251.78l-10,5.77v78.53a10,10,0,0,1-20,0V257.56l-10-5.78L119.61,187a10,10,0,1,1,10-17.32l112.18,64.76,10,5.77,10-5.77L374,169.7A10,10,0,1,1,384,187Z"/>
            <path class="cls-1" d="M251.78,408.63a10,10,0,0,1-10-10V374.17a10,10,0,1,1,20,0v24.46A10,10,0,0,1,251.78,408.63Z"/>
          </g>
          <line class="cls-3" x1="167.32" y1="140.23" x2="242.04" y2="96.22"/>
        </g>
      </g>
    </g>
  </g>
</svg>
