<svg xmlns="http://www.w3.org/2000/svg" viewBox="0 0 503.57 503.57">
  <defs>
    <style>
      .cls-1 {
        fill: #4631ac;
      }

      .cls-2 {
        fill: #4631d2;
      }

      .cls-3 {
        fill: #fff;
      }

      .cls-4 {
        fill: #4631ff;
      }
    </style>
  </defs>
  <g id="Слой_2" data-name="Слой 2">
    <g id="Шут">
      <rect class="cls-1" width="503.57" height="503.57" rx="55"/>
      <rect class="cls-2" x="288.65" y="36.87" width="178.01" height="178.01" transform="translate(199.61 -230.17) rotate(45)"/>
      <rect class="cls-2" x="288.65" y="288.6" width="178.01" height="178.01" transform="translate(377.62 -156.44) rotate(45)"/>
      <rect class="cls-2" x="36.88" y="36.87" width="178.01" height="178.01" transform="translate(125.87 -52.15) rotate(45)"/>
      <rect class="cls-2" x="36.88" y="288.6" width="178.01" height="178.01" transform="translate(303.88 21.58) rotate(45)"/>
      <path class="cls-3" d="M251.86,65.76h-1.54c-24.43,0-43.12-1.47-51.65-2.3-44.14-4.31-51.54-11.08-62.85-5.39-21.08,10.62-7.61,40.31-24.9,108.1-11.78,46.13-25.59,62.2-18.41,94.25,1.81,8.09,7.5,19.32,18.87,41.77,17.37,34.29,27,52.4,43.14,76.21,44.53,65.48,75.37,77.29,84.34,80.36a116.91,116.91,0,0,0,11.55,3.29l1.32.14"/>
      <path class="cls-4" d="M251.61,65.76h1.54c24.43,0,43.12-1.47,51.65-2.3,44.14-4.31,51.54-11.08,62.85-5.39,21.08,10.62,7.61,40.31,24.91,108.1,11.77,46.13,25.58,62.2,18.4,94.25-1.81,8.09-7.5,19.32-18.87,41.77-17.37,34.29-26.95,52.4-43.14,76.21-44.52,65.48-75.36,77.29-84.34,80.36a116.91,116.91,0,0,1-11.55,3.29l-1.31.14"/>
      <path class="cls-4" d="M211.4,371c.16.84,7.1.08,13.74-.44,6.45-.51,15.43-1,26.47-1v18.41c-1.11,0-2.39,0-3.79-.05a99.41,99.41,0,0,1-29.49-5.38c-15.31-5.35-28.62-14.48-27.93-16,.21-.47,1.68,0,3.84.2,6.72.51,10.26-3.05,19.44-8.05,0,0,18.22-9.8,26.15-6.8a43.37,43.37,0,0,0,4.52,1.54,42.78,42.78,0,0,0,7.26,1.35v8.92c-16.42.17-27.09,2.49-33.63,4.49C216.28,368.69,211.26,370.22,211.4,371Z"/>
      <path class="cls-3" d="M285,382.5a99.41,99.41,0,0,1-29.49,5.38c-1.47.05-2.8.06-3.94,0v-18.4c11.11,0,20.14.48,26.62,1,6.64.52,13.58,1.28,13.74.44s-4.88-2.27-6.58-2.79c-6.56-2-17.28-4.33-33.78-4.49v-8.9a42.33,42.33,0,0,0,11.93-2.91c7.93-3,26.15,6.8,26.15,6.8,9.18,5,12.72,8.56,19.44,8.05,2.16-.17,3.63-.67,3.84-.2C313.66,368,300.35,377.15,285,382.5Z"/>
      <path class="cls-3" d="M333.94,306.89c-.79,6.89-3.09,10.18-3.84,11.17l-.08.1c-3.82,4.94-9.87,4.94-13.69,0l-.08-.1c-.76-1-3.05-4.28-3.84-11.17-1.32-11.52,3.2-19,6.84-33.37a135.35,135.35,0,0,0,3.2-17.35.73.73,0,1,1,1.45,0,137.41,137.41,0,0,0,3.19,17.35C330.74,287.88,335.26,295.37,333.94,306.89Z"/>
      <path class="cls-3" d="M302.88,191.86c14.21-6,34.76-5.57,47.93-2,2.58.71,7.46,2.25,12.56.26,8-3.15,9.86-12.47,11.86-11.89,2.3.67,1.59,13.61-2.48,26.21-1.84,5.7-3.46,10.74-7.31,15.85-9.68,12.84-25.53,15.73-28,16.15-20.28,3.42-29-9.28-51.07-5.06a55.73,55.73,0,0,0-14.38,4.9,55.2,55.2,0,0,1,4.79-17.6C279.3,213.23,287.21,198.52,302.88,191.86Z"/>
      <path class="cls-4" d="M303.65,202.87c17.64-10.87,37.34-4.72,41.72-3.31a60.38,60.38,0,0,1,13,6,30.51,30.51,0,0,1-7.19,9.8c-8.4,7.54-18.88,8-23,8.15-9.54.3-11.83-2.8-25.32-3.81a93.9,93.9,0,0,0-14.82.06A44.26,44.26,0,0,1,303.65,202.87Z"/>
      <path class="cls-4" d="M200.65,191.86c-14.21-6-34.77-5.57-47.93-2-2.58.71-7.47,2.25-12.56.26-8-3.15-9.87-12.47-11.86-11.89-2.31.67-1.6,13.61,2.48,26.21,1.84,5.7,3.46,10.74,7.31,15.85,9.68,12.84,25.52,15.73,28,16.15,20.32,3.42,29-9.29,51.08-5.06a55.87,55.87,0,0,1,14.38,4.9,55.59,55.59,0,0,0-4.8-17.6C224.79,214.43,216.93,198.78,200.65,191.86Z"/>
      <path class="cls-3" d="M199.88,202.87c-17.64-10.87-37.35-4.72-41.73-3.31a60.26,60.26,0,0,0-13,6,30.21,30.21,0,0,0,7.19,9.8c8.39,7.54,18.87,8,23,8.15,9.55.3,11.84-2.8,25.33-3.81a93.92,93.92,0,0,1,14.82.06A44.34,44.34,0,0,0,199.88,202.87Z"/>
      <path class="cls-4" d="M251.76,324.15a8.12,8.12,0,0,1-2.51-.17c-3.45-.79-4.1-3.4-7.68-5.64-1.48-.92-4-2.48-7-2.2-3.25.3-5.07,2.53-6.58,1.61-.39-.23-1-.8-1.15-2.78-.54-5.91,3.71-10.38,3.23-10.77s-7.67,4.4-9.44,12.62c-.14.66-1.63,7.87,1.34,9.66,2.33,1.4,4.75-2.14,10.79-2.12a20.86,20.86,0,0,1,8.65,2.12c2.64,1.38,4.63,3.3,8.41,3.78a12.74,12.74,0,0,0,2,.1Z"/>
      <path class="cls-3" d="M251.76,324.15a8.18,8.18,0,0,0,2.52-.17c3.44-.79,4.09-3.4,7.68-5.64,1.47-.92,4-2.48,7-2.2,3.25.3,5.07,2.53,6.58,1.61.39-.23,1-.8,1.15-2.78.55-5.91-3.7-10.38-3.23-10.77s7.67,4.4,9.44,12.62c.15.66,1.63,7.87-1.33,9.66-2.33,1.4-4.76-2.14-10.8-2.12a20.73,20.73,0,0,0-8.64,2.12c-2.65,1.38-4.64,3.3-8.41,3.78a12.79,12.79,0,0,1-2,.1Z"/>
    </g>
  </g>
</svg>
