<svg xmlns="http://www.w3.org/2000/svg" viewBox="0 0 503.57 503.57">
  <defs>
    <style>
      .cls-1 {
        fill: #f44d34;
      }

      .cls-2 {
        fill: #eee;
      }
    </style>
  </defs>
  <g id="Слой_2" data-name="Слой 2">
    <g id="Слой_7" data-name="Слой 7">
      <rect class="cls-1" width="503.57" height="503.57" rx="55"/>
      <g>
        <path class="cls-2" d="M223.48,117.2c-6.63,5.57-17,7-24.5,5.91-.13-3-.32-7.44-.51-12.87-.29-8.42-.43-12.62-.37-14.8.14-5.35,1.4-13.28,6.85-23.28a1,1,0,0,1,1.7-.06,18.34,18.34,0,0,0,7.88,7.3,45.81,45.81,0,0,0,10.1,2.67h0a113.49,113.49,0,0,1,3.54-15.35C223.19,90,236.35,106.37,223.48,117.2Z"/>
        <path class="cls-2" d="M282.51,117.2c6.63,5.57,17,7,24.5,5.91.14-3,.32-7.44.51-12.87.29-8.42.44-12.62.38-14.8-.15-5.35-1.4-13.28-6.86-23.28a1,1,0,0,0-1.69-.06,18.4,18.4,0,0,1-7.89,7.3,45.81,45.81,0,0,1-10.1,2.67h0a114.27,114.27,0,0,0-3.53-15.35C282.81,90,269.64,106.37,282.51,117.2Z"/>
      </g>
      <path class="cls-2" d="M239.86,342.18A194.32,194.32,0,0,1,244,362.92c5.18,35.57-.3,66.58-7,89.09-.6,1.18-1.6,3-3,5.22-3.68,5.9-5.71,7.27-6.55,11.15a12.22,12.22,0,0,0,.19,6.46,12.38,12.38,0,0,0,5.09,6.45c4.32,2.42,6.87.59,14.77.59,8.36,0,11.14,2.23,17.81.19a9.46,9.46,0,0,0,5-3.13c1.74-2.22,1.8-4.78,1.82-6.84,0-1.81-.21-4.32-4-14-.74-1.89-1.36-3.43-1.77-4.41-.7-3.8-1.69-9.81-2.37-17.21-2.22-24.22,1.32-37.24,1.33-53.09,0-11-1.7-27.3-10.3-47.48Z"/>
      <path class="cls-2" d="M450.28,270.17a50.66,50.66,0,0,1-14,21.41c-7.13,6.28-14.21,8.53-29.06,12.82-10.5,3-18.85,5-25.34,6.34-12.89,2.74-18.44,3.28-18.87,5.79a2.77,2.77,0,0,0,.09,1.27,3.71,3.71,0,0,0,.29.7c3.63,7.23,30.76,18.18,56,22.68,5.29.94,10.18,1.55,14.52,1.93,2.67.24,5.14.39,7.37.49a1.49,1.49,0,0,1,.85,2.65c-21.36,17-41.13,23-51.89,25.45-11.68,2.62-37,8.31-54.94,3.25h0a37.07,37.07,0,0,1-4.72-1.68c-1.86-.82-8.6-4-11.35-1.42-2.24,2.08-.8,7,0,9.63a39.25,39.25,0,0,0,8,14.17,56.11,56.11,0,0,0,6.57,6.45,2.19,2.19,0,0,1-1.23,3.85c-23.62,2.08-35.65-3.87-42.32-10-4.64-4.26-6.16-7.52-12.13-15.26A158.92,158.92,0,0,0,253,355,158.9,158.9,0,0,0,228,380.7c-6,7.74-7.49,11-12.13,15.26-6.66,6.12-18.69,12.07-42.32,10a2.19,2.19,0,0,1-1.23-3.85,56,56,0,0,0,6.78-6.71,38.91,38.91,0,0,0,7.82-13.91c.8-2.63,2.23-7.55,0-9.63-2.75-2.56-9.49.6-11.35,1.42-6.49,2.84-14.46,3.79-22.6,3.7-14.23-.14-29-3.45-37.08-5.27-10.75-2.41-30.53-8.44-51.88-25.45a1.48,1.48,0,0,1,.85-2.65c1.29-.06,2.66-.13,4.11-.23a170.81,170.81,0,0,0,17.77-2.19c27.62-4.94,57.56-17.6,56.35-24.65-.49-2.88-7.75-3.16-25.16-7.18-5.36-1.23-11.68-2.82-19.06-5C84,300.11,76.9,297.86,69.76,291.58a50.63,50.63,0,0,1-14-21.41,1.51,1.51,0,0,1,1.52-2c3.89.28,7.44.5,10.69.67,23.66,1.26,30.87-.19,31.28-2.39.53-2.77-10-5.2-20.79-11.42a58.29,58.29,0,0,1-9.34-6.58c-18.62-16.33-21.77-44.9-19.66-72.35a3.62,3.62,0,0,1,3-3.28l1.36-.2q2.72-.41,5.79-.65a78.6,78.6,0,0,1,22,1.35c23.08,4.77,39.14,19.37,49.15,27.41,5.09,4.09,8.61,6.49,10.71,5.07s2.72-6.89-3.66-23.77h0c-.62-1.66-1.31-3.42-2.08-5.31a.19.19,0,0,1,.17-.27,30.25,30.25,0,0,1,10.28,2c17.08,6.55,22,27.54,29.58,44.91,4.68,10.72,10.38,20.06,20.58,23.79h0a29.88,29.88,0,0,0,3.36,1c2.54.6,5.77.89,7.51-.86,4.3-4.34-3.34-18.16-12.13-34.83-6-11.37-10.9-22.17-14.57-31.07-3.56-8.57-6-15.37-7.15-19.22-3.08-10.1-4.75-23.49-1.36-40.89q.63-3.24,1.51-6.67a150.71,150.71,0,0,1,8.55-24.16.72.72,0,0,1,1.38.25c.95,13.25,8.32,23.73,18.16,26.67,5.91,1.76,14.23,1.25,19.9-3.71,11-9.65,1.69-27.09,7.3-49.87,0,0,0,0,0,0,2.42-9.74,8.07-22.56,22.31-36.1a2.73,2.73,0,0,1,3.76,0C269.14,41.19,274.79,54,277.19,63.77A67.91,67.91,0,0,1,279,76.7c.87,16.47-3.35,29.21,5.46,36.94,4.81,4.22,11.55,5.22,17.09,4.34a21.26,21.26,0,0,0,2.8-.63c9.85-2.94,17.22-13.42,18.16-26.67a.72.72,0,0,1,1.38-.25c14.83,33.26,13.4,56.32,8.71,71.72-2.4,7.86-10,28-21.73,50.29-4.61,8.74-8.9,16.7-11.32,22.92-2.2,5.64-2.86,9.85-.81,11.91a3,3,0,0,0,.56.45c1.76,1.2,4.49,1,6.74.46a27.55,27.55,0,0,0,3.57-1.07c25.19-9.23,23-52.58,45.63-66.46a26.29,26.29,0,0,1,4.54-2.25,30.33,30.33,0,0,1,10.29-2,.19.19,0,0,1,.17.27c-5.84,14.38-7.5,21.93-7.21,25.78.14,1.8.7,2.79,1.45,3.3,4.18,2.82,14-9.45,30.45-20h0a86.89,86.89,0,0,1,29.4-12.43,80.39,80.39,0,0,1,29.13-.5,3.62,3.62,0,0,1,3.06,3.28c2.1,27.45-1.05,56-19.67,72.35-6.08,5.33-13.21,8.82-19,11.4-6.61,2.94-11.49,4.69-11.13,6.6.21,1.13,2.23,2.07,7.37,2.54,6.2.56,17,.44,34.61-.82A1.51,1.51,0,0,1,450.28,270.17Z"/>
    </g>
  </g>
</svg>
