<svg id="Uranus" xmlns="http://www.w3.org/2000/svg" viewBox="0 0 503.57 503.57">
  <defs>
    <style>
      .cls-1 {
        fill: #87c4c9;
      }

      .cls-2 {
        fill: #fff;
      }

      .cls-3 {
        fill: none;
      }
    </style>
  </defs>
  <rect class="cls-1" width="503.57" height="503.57" rx="55"/>
  <g>
    <path class="cls-2" d="M167.74,103.46V295.84A32.24,32.24,0,0,1,135.59,328H98.28a11.15,11.15,0,0,1-11.15-11.15V302.15A11.16,11.16,0,0,1,98.28,291h13.44a10,10,0,0,0,1.81-.14,21.1,21.1,0,0,0,17.21-20V128.43a21.1,21.1,0,0,0-17.21-20,10.05,10.05,0,0,0-1.81-.15H98.28A11.15,11.15,0,0,1,87.13,97.15V82.46A11.16,11.16,0,0,1,98.28,71.3h37.31A32.25,32.25,0,0,1,167.74,103.46Z" transform="translate(-4.22 -4.22)"/>
    <path class="cls-2" d="M344.35,103.46V295.84A32.24,32.24,0,0,0,376.5,328h37.31A11.15,11.15,0,0,0,425,316.84V302.15A11.16,11.16,0,0,0,413.81,291H400.37a10.08,10.08,0,0,1-1.82-.14,21.11,21.11,0,0,1-17.2-20V128.43a21.1,21.1,0,0,1,17.2-20,10.09,10.09,0,0,1,1.82-.15h13.44A11.15,11.15,0,0,0,425,97.15V82.46A11.16,11.16,0,0,0,413.81,71.3H376.5A32.25,32.25,0,0,0,344.35,103.46Z" transform="translate(-4.22 -4.22)"/>
    <rect class="cls-2" x="130.56" y="178.22" width="250.96" height="37.13" rx="12" transform="translate(448.61 -63.48) rotate(90)"/>
    <rect class="cls-2" x="130.87" y="179.22" width="250.35" height="37.13" rx="16.7" transform="translate(507.87 391.35) rotate(-180)"/>
    <path class="cls-2" d="M256,326.48a42.74,42.74,0,1,1-42.74,42.74A42.78,42.78,0,0,1,256,326.48m0-35a77.74,77.74,0,1,0,77.74,77.74A77.74,77.74,0,0,0,256,291.48Z" transform="translate(-4.22 -4.22)"/>
    <polyline class="cls-3" points="82.83 286.74 82.83 286.78 82.83 323.78 82.83 344.65"/>
    <polyline class="cls-3" points="82.83 60.83 82.83 67.09 82.83 104.09 82.83 104.13"/>
  </g>
</svg>
