<svg xmlns="http://www.w3.org/2000/svg" viewBox="0 0 503.57 503.57">
  <defs>
    <style>
      .cls-1 {
        fill: #333;
      }

      .cls-2 {
        fill: #f6f6f6;
      }
    </style>
  </defs>
  <g id="Слой_2" data-name="Слой 2">
    <g id="Слой_1-2" data-name="Слой 1">
      <g>
        <rect class="cls-1" width="503.57" height="503.57" rx="55"/>
        <path class="cls-2" d="M434.53,239.57a113.11,113.11,0,0,1-13.95,22.27,109.45,109.45,0,0,1-23.7,21.62c-22.07,15.21-55.72,43.85-76.58,65.23-28,28.75-47.37,59.14-57.39,75.07-3.55,5.63-6.55,10.64-8.94,14.75a2.53,2.53,0,0,1-4.37,0c-2.4-4.11-5.4-9.12-8.94-14.75-10-15.93-29.36-46.32-57.4-75.07-20.86-21.38-54.5-50-76.57-65.23A109.41,109.41,0,0,1,83,261.84a113.61,113.61,0,0,1-14-22.27C65.49,232.5,52,204.7,54,170.82c.48-8,5.26-71.25,57.39-97.2,34.23-17,68-8,79.63-4.14,38,12.6,56.31,41.86,60.76,49.47,4.46-7.61,22.76-36.87,60.77-49.47,11.58-3.84,45.4-12.9,79.62,4.14,52.13,25.95,56.91,89.17,57.4,97.2C451.6,204.7,438.08,232.5,434.53,239.57Z"/>
      </g>
    </g>
  </g>
</svg>
